<?xml version="1.0" standalone="no"?>
<!DOCTYPE svg PUBLIC "-//W3C//DTD SVG 20010904//EN"
 "http://www.w3.org/TR/2001/REC-SVG-20010904/DTD/svg10.dtd">
<svg version="1.0" xmlns="http://www.w3.org/2000/svg"
 width="700.000000pt" height="700.000000pt" viewBox="0 0 700.000000 700.000000"
 preserveAspectRatio="xMidYMid meet">
<metadata>
Created by potrace 1.11, written by Peter Selinger 2001-2013
</metadata>
<g transform="translate(0.000000,700.000000) scale(0.100000,-0.100000)"
fill="#000000" stroke="none">
<path d="M25 5600 c-2 -3 26 -37 62 -75 138 -146 381 -404 494 -526 19 -20 86
-92 150 -160 64 -68 131 -140 149 -159 204 -220 440 -470 443 -470 1 0 2 209
2 465 l0 465 2182 0 2183 0 0 -467 0 -468 52 55 c84 89 188 199 267 285 41 44
106 114 145 155 93 99 315 337 391 419 33 35 76 81 95 101 19 20 85 90 145
155 119 128 134 144 182 196 l33 35 -3486 -1 c-1917 0 -3487 -2 -3489 -5z"/>
<path d="M2429 4655 c-137 -23 -273 -73 -344 -127 -85 -64 -171 -165 -212
-248 -91 -186 -109 -301 -112 -710 l-2 -300 893 -1 c491 -1 908 -3 927 -5 95
-11 183 -49 238 -102 71 -70 109 -162 119 -292 l6 -70 -1091 0 -1091 0 0 -235
0 -235 1745 2 1745 3 1 25 c3 129 -1 532 -6 595 -20 262 -122 487 -275 605
-25 19 -47 38 -50 41 -15 19 -185 89 -250 103 -41 9 -88 19 -105 22 -16 4
-358 8 -760 9 l-730 2 -1 49 c-1 58 19 150 45 210 39 87 145 174 232 189 18 3
37 9 43 13 6 4 425 7 931 7 l920 1 3 232 2 232 -1372 -1 c-1059 -1 -1390 -4
-1449 -14z"/>
<path d="M1214 2683 c-60 -64 -139 -149 -175 -188 -37 -38 -86 -90 -109 -115
-39 -42 -187 -200 -355 -378 -79 -84 -83 -89 -251 -268 -67 -71 -138 -147
-159 -169 -20 -22 -61 -65 -91 -97 -30 -31 -54 -58 -54 -61 0 -3 1569 -6 3486
-7 2215 0 3485 3 3482 9 -1 5 -57 67 -123 137 -66 70 -131 139 -144 153 -41
45 -141 152 -275 294 -71 76 -138 148 -148 160 -11 12 -68 73 -127 137 -60 63
-123 131 -141 150 -18 19 -78 83 -133 143 -56 59 -125 133 -154 165 -30 31
-53 50 -52 42 1 -8 1 -219 0 -467 l-1 -453 -2180 0 c-1737 0 -2180 3 -2181 13
0 6 -1 216 -1 465 -1 248 -2 452 -3 452 0 0 -50 -53 -111 -117z"/>
</g>
</svg>
