<?xml version="1.0" encoding="UTF-8" standalone="no"?>
<svg
   xmlns:dc="http://purl.org/dc/elements/1.1/"
   xmlns:cc="http://creativecommons.org/ns#"
   xmlns:rdf="http://www.w3.org/1999/02/22-rdf-syntax-ns#"
   xmlns:svg="http://www.w3.org/2000/svg"
   xmlns="http://www.w3.org/2000/svg"
   viewBox="0 0 405.45001 84.699997"
   height="84.699997"
   width="405.45001"
   xml:space="preserve"
   version="1.1"
   id="svg2"><metadata
     id="metadata8"><rdf:RDF><cc:Work
         rdf:about=""><dc:format>image/svg+xml</dc:format><dc:type
           rdf:resource="http://purl.org/dc/dcmitype/StillImage" /></cc:Work></rdf:RDF></metadata><defs
     id="defs6" /><g
     transform="matrix(1.25,0,0,-1.25,0,84.7)"
     id="g10"><g
       transform="scale(0.1,0.1)"
       id="g12"><path
         id="path14"
         style="fill:#c41069;fill-opacity:1;fill-rule:nonzero;stroke:none"
         d="m 185.332,451.758 -0.156,150.965 2873.104,-0.371 0,-150.594 185.33,225.887 -3243.61,0 185.332,-225.887" /><path
         id="path16"
         style="fill:#c41069;fill-opacity:1;fill-rule:nonzero;stroke:none"
         d="m 741.328,150.586 0,75.293 c 0,100.391 -41.191,150.586 -123.555,150.586 l -185.332,0 c 0,50.195 20.59,75.293 61.778,75.293 l 247.109,0 0,75.301 -370.664,0 c -82.375,0 -123.555,-50.204 -123.555,-150.594 l 0,-75.293 247.11,0 c 41.179,0 61.777,-25.098 61.777,-75.293 l -308.887,0 0,-75.293 494.219,0" /><path
         id="path18"
         style="fill:#c41069;fill-opacity:1;fill-rule:nonzero;stroke:none"
         d="m 803.406,527.059 -0.304,-263.536 c 0.203,-75.293 31.086,-112.937 92.664,-112.937 l 92.972,0 0,75.293 -31.195,0 c -20.387,0 -30.688,12.547 -30.887,37.644 l 0,75.293 61.778,0 0,37.649 -61.778,0 0.309,150.594 -123.559,0" /><path
         id="path20"
         style="fill:#c41069;fill-opacity:1;fill-rule:nonzero;stroke:none"
         d="m 1050.21,150.586 0,75.293 c 0,100.391 41.18,150.586 123.55,150.586 l 185.34,-0.371 0,-37.278 -123.56,0 c -41.18,0 -61.78,-25.097 -61.78,-75.293 l 0,-112.937 -123.55,0" /><path
         id="path22"
         style="fill:#c41069;fill-opacity:1;fill-rule:nonzero;stroke:none"
         d="m 1513.54,263.523 c 0,50.196 20.59,75.293 61.77,75.293 l 61.78,-0.371 c 20.59,0 30.9,-12.558 30.9,-37.644 l -154.45,-74.922 0,37.644 z m 278,37.649 c 0,50.449 -20.7,75.547 -62.09,75.293 l -215.91,0 c -61.78,0 -92.67,-37.649 -92.67,-112.942 l 0,-112.937 370.67,0 0,75.293 -154.45,0 154.45,75.293" /><path
         id="path24"
         style="fill:#c41069;fill-opacity:1;fill-rule:nonzero;stroke:none"
         d="m 1945.98,225.879 c -0.21,24.844 10.08,37.391 30.89,37.644 l 61.46,-0.371 0.31,-37.273 -92.66,0 z m 215.9,37.644 c 0,75.293 -30.78,112.942 -92.35,112.942 l -154.44,-0.371 0,-37.278 92.66,0 c 20.59,0 30.79,-12.675 30.58,-38.015 l -123.24,0.371 c -41.19,-0.254 -61.78,-25.481 -61.78,-75.664 l 0,-74.922 308.89,0 -0.32,112.937" /><path
         id="path26"
         style="fill:#c41069;fill-opacity:1;fill-rule:nonzero;stroke:none"
         d="m 2223.97,150.586 0,225.879 308.89,0 c 61.78,0 92.67,-37.649 92.67,-112.942 l 0,-112.937 -92.67,0 -0.31,150.215 c 0.2,25.34 -9.99,37.89 -30.58,37.644 l -30.89,0 0,-187.859 -92.66,0 0,188.23 -61.78,0 0,-188.23 -92.67,0" /><path
         id="path28"
         style="fill:#c41069;fill-opacity:1;fill-rule:nonzero;stroke:none"
         d="m 3058.28,225.879 0,-150.586 C 3058.28,25.0977 3037.69,0 2996.5,0 l 247.11,0 -185.33,225.879" /><path
         id="path30"
         style="fill:#c41069;fill-opacity:1;fill-rule:nonzero;stroke:none"
         d="m 2872.64,376.465 0,-150.586 -30.89,0 c -20.6,0 -30.89,12.547 -30.89,37.644 l 0,112.942 -123.56,0 0,-112.942 c 0,-75.293 30.89,-112.937 92.67,-112.937 l 92.67,0 c 0,-50.195 -20.6,-75.293 -61.78,-75.293 l -2625.219,0 0,150.586 L 0,0.371094 247.418,0 2872.64,0 c 82.36,0 123.55,50.1953 123.55,150.586 l 0,225.879 -123.55,0" /></g></g></svg>